# xmcd CD database file
#
# Track frame offsets:
#	150
#	24344
#	44871
#	59479
#	85134
#	111743
#	132640
#	152314
#
# Disc length: 2404 seconds
#
# Revision: 0
# Processed by: cddbd v1.5.2PL0 Copyright (c) Steve Scherf et al.
# Submitted via: CDex 1.51
#
DISCID=6f096208
DTITLE=Otis Grove - Crank it Up
DYEAR=2007
DGENRE=Jazz
TTITLE0=Pimp Juice
TTITLE1=Pure Luck
TTITLE2=Meet Me at the Rendezvous
TTITLE3=Chimichanga
TTITLE4=Notorious Victorious
TTITLE5=Check It
TTITLE6=Buckfush
TTITLE7=The Effin' Song
EXTD=YEAR: 2007
EXTT0=
EXTT1=
EXTT2=
EXTT3=
EXTT4=
EXTT5=
EXTT6=
EXTT7=
PLAYORDER=
